<svg width="35" height="26" viewBox="0 0 35 26" fill="none" xmlns="http://www.w3.org/2000/svg">
<path d="M2.49965 25.6664H32.4997C32.8034 25.6654 33.1011 25.5816 33.3608 25.4241C33.6204 25.2665 33.8322 25.0411 33.9733 24.7721C34.1144 24.5031 34.1795 24.2008 34.1615 23.8975C34.1435 23.5943 34.0432 23.3018 33.8713 23.0514L18.8713 1.38469C18.2497 0.486354 16.753 0.486354 16.1297 1.38469L1.12965 23.0514C0.956029 23.3013 0.854211 23.594 0.835263 23.8977C0.816315 24.2014 0.880961 24.5045 1.02218 24.774C1.16339 25.0436 1.37578 25.2693 1.63626 25.4266C1.89674 25.5839 2.19535 25.6668 2.49965 25.6664Z" fill="#0B8A00"/>
</svg>
