<svg width="31" height="30" viewBox="0 0 31 30" fill="none" xmlns="http://www.w3.org/2000/svg">
<g id="mi:notification">
<path id="Vector" d="M13.1827 4.06235C13.3695 3.60074 13.6898 3.20542 14.1027 2.92706C14.5156 2.64871 15.0022 2.5 15.5002 2.5C15.9981 2.5 16.4848 2.64871 16.8977 2.92706C17.3106 3.20542 17.6309 3.60074 17.8177 4.06235C19.6661 4.5707 21.2966 5.67179 22.4586 7.19652C23.6207 8.72124 24.2501 10.5853 24.2502 12.5023V18.3736L26.5402 21.8086C26.6658 21.9968 26.7379 22.2157 26.7489 22.4417C26.7599 22.6677 26.7093 22.8925 26.6025 23.0921C26.4958 23.2916 26.3368 23.4584 26.1427 23.5747C25.9486 23.691 25.7265 23.7524 25.5002 23.7523H19.8314C19.6809 24.7937 19.1603 25.746 18.3648 26.4348C17.5694 27.1235 16.5524 27.5026 15.5002 27.5026C14.448 27.5026 13.431 27.1235 12.6356 26.4348C11.8401 25.746 11.3194 24.7937 11.1689 23.7523H5.50019C5.27388 23.7524 5.05182 23.691 4.85768 23.5747C4.66354 23.4584 4.50461 23.2916 4.39784 23.0921C4.29108 22.8925 4.24049 22.6677 4.25147 22.4417C4.26245 22.2157 4.33459 21.9968 4.46019 21.8086L6.75019 18.3736V12.5023C6.75019 8.47235 9.47519 5.07735 13.1827 4.06235ZM13.7327 23.7523C13.8618 24.1182 14.1012 24.4349 14.4178 24.659C14.7345 24.883 15.1129 25.0034 15.5008 25.0034C15.8887 25.0034 16.2671 24.883 16.5838 24.659C16.9005 24.4349 17.1398 24.1182 17.2689 23.7523H13.7314H13.7327ZM15.5002 6.25235C13.8426 6.25235 12.2529 6.91083 11.0808 8.08293C9.90867 9.25503 9.25019 10.8447 9.25019 12.5023V18.7523C9.25024 18.9993 9.17717 19.2407 9.04019 19.4461L7.83644 21.2523H23.1627L21.9589 19.4461C21.8224 19.2405 21.7498 18.9991 21.7502 18.7523V12.5023C21.7502 10.8447 21.0917 9.25503 19.9196 8.08293C18.7475 6.91083 17.1578 6.25235 15.5002 6.25235Z" fill="#898A8D"/>
<circle id="Ellipse 30" cx="21.75" cy="7.5" r="4.375" fill="#FF0000" stroke="#EBEBEB" stroke-width="1.25"/>
</g>
</svg>
