<svg width="23" height="42" viewBox="0 0 23 42" fill="none" xmlns="http://www.w3.org/2000/svg">
<path fill-rule="evenodd" clip-rule="evenodd" d="M0 0L9.85165 5.71154V12.0577L5.56044 9.60989V15.8049L11.0604 18.978L5.56044 22.2115L0 19.0082V0ZM8.34082 34.8732L16.3491 30.0078L16.3546 30.0177C16.3622 30.0016 16.3695 29.9853 16.3765 29.969C16.5124 29.6528 16.5451 29.3037 16.4705 28.9659C16.3958 28.6282 16.2171 28.3169 15.9571 28.0714L20.011 24.2444C21.0893 25.2622 21.83 26.553 22.1396 27.9534C22.4492 29.3539 22.3136 30.8012 21.7501 32.1122C21.2265 33.3303 20.3554 34.3799 19.2348 35.148L19.2502 35.1754L8.34082 41.3402V34.8732Z" fill="#6A8F9F"/>
</svg>
