<svg width="126" height="120" viewBox="0 0 126 120" fill="none" xmlns="http://www.w3.org/2000/svg">
<path d="M63.0008 111.575C92.1407 111.575 115.763 88.4932 115.763 60.02C115.763 31.5469 92.1407 8.46484 63.0008 8.46484C33.8609 8.46484 10.2383 31.5469 10.2383 60.02C10.2383 88.4932 33.8609 111.575 63.0008 111.575Z" fill="#54CC00" fill-opacity="0.5"/>
<path d="M63 120C97.7939 120 126 93.1371 126 60C126 26.8629 97.7939 0 63 0C28.2061 0 0 26.8629 0 60C0 93.1371 28.2061 120 63 120Z" fill="#54CC00" fill-opacity="0.25"/>
<path d="M62.9984 99.2604C85.1796 99.2604 103.161 81.6905 103.161 60.0169C103.161 38.3434 85.1796 20.7734 62.9984 20.7734C40.8173 20.7734 22.8359 38.3434 22.8359 60.0169C22.8359 81.6905 40.8173 99.2604 62.9984 99.2604Z" fill="#54CC00"/>
<path d="M61.4988 75.6104C60.234 75.6104 58.9692 75.0848 58.0657 74.3841L44.8756 62.9964C42.7073 61.0693 42.5266 57.9158 44.3335 55.8135C46.3211 53.7111 49.5734 53.5359 51.7417 55.2879L60.9567 63.1716L76.4958 44.9514C78.3027 42.8491 81.555 42.4987 83.904 44.2506C86.0722 46.0026 86.4336 49.3313 84.6267 51.4336L65.4739 73.6833C64.5704 74.7344 63.3056 75.4352 61.8601 75.4352C61.8601 75.6104 61.6795 75.6104 61.4988 75.6104Z" fill="white"/>
</svg>
